<?xml version="1.0" encoding="UTF-8" standalone="no"?><!DOCTYPE svg PUBLIC "-//W3C//DTD SVG 1.1//EN" "http://www.w3.org/Graphics/SVG/1.1/DTD/svg11.dtd"><svg width="100%" height="100%" viewBox="0 0 720 720" version="1.1" xmlns="http://www.w3.org/2000/svg" xmlns:xlink="http://www.w3.org/1999/xlink" xml:space="preserve" xmlns:serif="http://www.serif.com/" style="fill-rule:evenodd;clip-rule:evenodd;stroke-linejoin:round;stroke-miterlimit:2;"><path d="M595.614,256.257c61.645,-25.471 61.459,-25.89 66.855,-28.015c2.485,-0.979 1.316,1.083 1.145,1.324c-1.853,2.619 -49.743,90.69 -59.313,107.822c-18.433,32.998 -61.534,113.514 -62.763,113.568c-1.018,0.045 -121.441,-72.492 -131.976,-78.838c-35.439,-21.347 -36.202,-21.304 -35.764,-22.042c0.65,-1.096 204.048,-86.37 221.816,-93.82Z"/><path d="M286.261,386.418c-8.591,5.151 -106.923,64.115 -107.484,64.226c-1.752,0.347 -1.425,-0.748 -15.843,-26.686c-1.782,-3.206 -98.202,-179.26 -101.852,-185.677c-5.302,-9.322 -5.624,-9.965 -4.741,-10.092c1.612,-0.231 226.968,95.414 238.384,100.024c14.51,5.859 44.814,18.998 48.698,20.681c0.174,0.075 3.936,0.934 1.825,2.276c-4.639,2.95 -5.005,2.207 -58.987,35.248Z"/><path d="M454.952,413.415c16.659,10.266 62.999,37.758 68.492,41.016c2.624,1.557 4.237,1.467 2.836,2.642c-0.435,0.364 -0.531,-0.146 -143.637,-0.136c-189.13,0.012 -189.195,0.221 -189.325,0.065c-1.121,-1.348 0.68,-1.05 29.127,-18.27c43.267,-25.936 86.534,-51.872 129.802,-77.808c4.52,-2.716 7.059,-4.695 8.546,-3.845c4.739,2.712 92.94,55.614 94.16,56.336Z"/><path d="M654.443,110.834c-1.292,7.72 -16.087,96.092 -16.469,96.452c-1.225,1.151 -9.8,-8.351 -19.061,-16.97c-9.146,-8.512 -9.445,-9.28 -10.444,-8.274c-4.467,4.494 -83.446,90.559 -84.568,91.149c-4.806,2.529 -85.208,35.556 -99.104,42.182c-5.139,2.45 0.608,-1.967 11.836,-13.385c75.242,-76.518 89.497,-95.863 137.901,-148.269c0.246,-0.266 2.918,-3.159 2.03,-4.042c-1.514,-1.506 -26.934,-24.291 -26.578,-25.432c0.211,-0.677 47.283,-13.269 67.442,-19.187c3.087,-0.906 35.602,-10.451 38.739,-10.808c1.325,-0.151 1.042,0.845 -1.722,16.586Z"/><path d="M264.448,255.681c2.057,-2.987 70.162,-104.266 77.651,-115.105c10.423,-15.088 12.408,-19.522 11.994,-15.712c-0.373,3.435 -0.177,3.438 -0.202,130.865c-0.016,83.182 0.15,83.735 -0.745,83.842c-0.386,0.046 -109.597,-46.148 -111.008,-46.829c-3.116,-1.505 -0.568,-2.804 22.31,-37.06Z"/><path d="M390.684,241.629c2.197,15.234 6.524,13.205 21.407,17.242c1.482,0.402 5.127,6.299 3.219,9.048c-11.258,16.223 -9.736,19.277 2.97,33.003c1.546,1.671 -0.692,3.738 -16.891,17.804c-14.053,12.204 -34.632,21.573 -35.387,20.52c-0.589,-0.821 0.169,-200.217 -0.373,-214.325c-0.118,-3.079 1.753,0.001 10.061,12.631c0.072,0.109 37.058,54.694 38.901,57.51c2.377,3.632 1.334,3.969 -0.522,7.837c-2.774,5.779 -20.923,-1.374 -23.125,17.659c-1.444,12.481 -0.543,17.907 -0.262,21.073Z"/><path d="M444.818,235.318c2.037,21.356 14.311,26.09 11.542,29.456c-1.718,2.088 -27.817,28.301 -27.953,28.345c-1.136,0.368 -10.067,-7.025 -7.664,-11.303c4.152,-7.391 9.951,-13.243 8.876,-15.481c-3.781,-7.876 -4.076,-7.738 -6.478,-16.163c-1.222,-4.288 -19.556,-2.963 -20.353,-7.755c-0.874,-5.253 -1.811,-22.295 2.268,-23.507c7.461,-2.217 17.121,-2.661 17.951,-5.279c4.825,-15.222 8.493,-14.936 6.432,-18.185c-6.989,-11.016 -10.884,-14.506 -7.877,-18.271c13.126,-16.433 16.901,-14.724 18.596,-13.958c5.382,2.436 13.325,9.734 14.949,8.949c7.639,-3.693 7.444,-4.077 16.193,-6.972c3.368,-1.115 2.63,-18.295 6.948,-19.22c2.078,-0.445 23.331,-3.004 24.824,2.108c2.11,7.219 2.397,16.34 4.67,17.095c8.405,2.79 8.211,3.167 16.181,6.994c3.159,1.517 14.431,-13.128 19.678,-8.487c2.5,2.212 3.386,2.764 1.164,5.299c-2.019,2.304 -24.516,27.972 -25.734,28.35c-3.239,1.006 -8.85,-11.97 -34.4,-10.223c-8.835,0.604 -22.254,6.574 -29.283,15.413c-12.01,15.102 -10.57,28.713 -10.53,32.796Z" style="fill:#010101;"/><path d="M175.971,239.955c5.006,0.771 74.598,12.037 75.126,12.37c1.762,1.109 0.06,1.642 -13.638,22.16c-7.871,11.79 -7.559,12.23 -8.76,12.409c-1.788,0.267 -126.987,-53.973 -147.842,-61.243c-0.88,-0.307 -1.086,-1.699 0.834,-1.276c13.401,2.956 62.094,10.142 94.28,15.579Z" style="fill:#010101;"/><path d="M592.126,232.237c42.929,-7.122 42.834,-7.332 45.755,-7.998c4.365,-0.996 0.278,1.447 0.166,1.489c-22.476,8.466 -85.435,35.973 -85.926,35.579c-0.83,-0.667 1.776,-2.676 2.63,-3.603c1.348,-1.464 14.338,-15.563 16.734,-18.405c5.161,-6.12 6.262,-4.643 20.641,-7.062Z" style="fill:#020202;"/><g transform="matrix(144,0,0,144,595.155685,597.828405)"></g><text x="122.937px" y="597.828px" style="font-family:'ArialMT', 'Arial', sans-serif;font-size:144px;">GitShip</text></svg>